<svg
    xmlns="http://www.w3.org/2000/svg"
>
    <symbol id="delete"
        viewBox="0 0 20 22"    
    >
        <path d="M1 5H19M17 5V19C17 20 16 21 15 21H5C4 21 3 20 3 19V5M6 5V3C6 2 7 1 8 1H12C13 1 14 2 14 3V5M8 10V16M12 10V16" stroke="black" stroke-width="2" stroke-linecap="round" stroke-linejoin="round"
        fill="transparent"
        
        style="stroke: var(--icon-stroke-color, #000); stroke-width: var(--icon-stroke-width, 1.5);"    
    />
    </symbol>
    <symbol id="edit"
        viewBox="0 0 16 16"
    >
        <path
        d="M8 15H15M10 3L12 5M11.2504 1.50805C11.5524 1.18275 11.9621 1 12.3893 1C12.6008 1 12.8103 1.04487 13.0057 1.13204C13.2011 1.21921 13.3787 1.34698 13.5282 1.50805C13.6778 1.66912 13.7964 1.86034 13.8774 2.07079C13.9583 2.28124 14 2.5068 14 2.73459C14 2.96238 13.9583 3.18794 13.8774 3.39839C13.7964 3.60884 13.6778 3.80006 13.5282 3.96113L4.03715 14.1823L1 15L1.75929 11.7292L11.2504 1.50805Z"
        stroke="black" stroke-width="1.5" stroke-linecap="round" stroke-linejoin="round"
        fill="transparent"

        style="stroke: var(--icon-stroke-color, #000); stroke-width: var(--icon-stroke-width, 1.5);"
        />    
    </symbol>
    <symbol id="github"
        viewBox="0 0 100 100"
    >
        <path fill-rule="evenodd" clip-rule="evenodd" d="M48.854 0C21.839 0 0 22 0 49.217c0 21.756 13.993 40.172 33.405 46.69 2.427.49 3.316-1.059 3.316-2.362 0-1.141-.08-5.052-.08-9.127-13.59 2.934-16.42-5.867-16.42-5.867-2.184-5.704-5.42-7.17-5.42-7.17-4.448-3.015.324-3.015.324-3.015 4.934.326 7.523 5.052 7.523 5.052 4.367 7.496 11.404 5.378 14.235 4.074.404-3.178 1.699-5.378 3.074-6.6-10.839-1.141-22.243-5.378-22.243-24.283 0-5.378 1.94-9.778 5.014-13.2-.485-1.222-2.184-6.275.486-13.038 0 0 4.125-1.304 13.426 5.052a46.97 46.97 0 0 1 12.214-1.63c4.125 0 8.33.571 12.213 1.63 9.302-6.356 13.427-5.052 13.427-5.052 2.67 6.763.97 11.816.485 13.038 3.155 3.422 5.015 7.822 5.015 13.2 0 18.905-11.404 23.06-22.324 24.283 1.78 1.548 3.316 4.481 3.316 9.126 0 6.6-.08 11.897-.08 13.526 0 1.304.89 2.853 3.316 2.364 19.412-6.52 33.405-24.935 33.405-46.691C97.707 22 75.788 0 48.854 0z"
          style="fill: var(--icon-fill-color);"
        />
    </symbol>
    <symbol 
        id="gitlab"
        viewBox="0 0 380 380"
    >
        <path class="" d="M282.83,170.73l-.27-.69-26.14-68.22a6.81,6.81,0,0,0-2.69-3.24,7,7,0,0,0-8,.43,7,7,0,0,0-2.32,3.52l-17.65,54H154.29l-17.65-54A6.86,6.86,0,0,0,134.32,99a7,7,0,0,0-8-.43,6.87,6.87,0,0,0-2.69,3.24L97.44,170l-.26.69a48.54,48.54,0,0,0,16.1,56.1l.09.07.24.17,39.82,29.82,19.7,14.91,12,9.06a8.07,8.07,0,0,0,9.76,0l12-9.06,19.7-14.91,40.06-30,.1-.08A48.56,48.56,0,0,0,282.83,170.73Z"
            style="fill: var(--icon-fill-color);"
        />
    </symbol>
    <symbol
        id="gitverse"
        viewBox="0 0 45 45"
    >
        <path fillRule="evenodd" clipRule="evenodd" d="M41.7023 23.6543C41.7023 34.2594 33.1051 42.8566 22.5001 42.8566C11.8949 42.8566 3.29782 34.2594 3.29782 23.6543C3.29782 13.0492 11.8949 4.45212 22.5001 4.45212C26.8684 4.45212 30.8962 5.91083 34.1227 8.3677L34.8028 7.53294C34.7904 7.52352 34.778 7.51409 34.7656 7.50468C31.3598 4.91392 27.1096 3.37598 22.5001 3.37598C11.3006 3.37598 2.22168 12.4549 2.22168 23.6543C2.22168 34.8539 11.3006 43.9328 22.5001 43.9328C33.6995 43.9328 42.7784 34.8539 42.7784 23.6543C42.7784 18.8387 41.0999 14.4151 38.2958 10.9368C38.1353 11.3745 37.9718 11.8225 37.8611 12.1302C40.2731 15.34 41.7023 19.3303 41.7023 23.6543Z" fill="white"
            style="fill: var(--icon-fill-color);"
        />
        <mask id="mask0_2223_2974" style="mask-type:alpha" maskUnits="userSpaceOnUse" x="4" y="0" width="38" height="42">
        <path fillRule="evenodd" clipRule="evenodd" d="M41.9373 0H5.7025L4.40137 23.6678V24.0664H4.40567C4.61768 33.8881 12.6459 41.7851 22.5185 41.7851C32.3912 41.7851 40.4195 33.8881 40.6314 24.0664H40.6361L41.9373 0Z" fill="#D9D9D9"
            style="fill: var(--icon-fill-color);"
        />
        </mask>
        <g mask="url(#mask0_2223_2974)">
        <path fillRule="evenodd" clipRule="evenodd" d="M16.4798 32.2142C17.9562 32.5115 19.9294 32.3314 22.1135 32.132C25.6834 31.8062 29.8165 31.4291 33.2632 33.0019C31.2578 32.6844 28.5467 32.6332 25.2449 33.3986C21.8234 34.1919 20.1134 35.6162 18.3109 37.1172C16.1872 38.8858 13.9353 40.7613 8.60444 41.8377C-1.25081 43.8271 8.60552 41.8377 8.60552 41.8377C8.16346 42.2164 21.6033 46.3198 29.1306 44.9599C38.5127 43.7333 45.5736 38.8439 45.5736 38.8439L43.1214 24.9951C43.1214 24.9951 40.9024 29.9966 39.0217 33.0019C39.8604 30.5913 40.4493 26.9486 40.2764 24.2573C40.1573 22.4047 40.038 20.5457 40.2476 18.7631C41.0846 11.6444 41.7228 2.17361 38.9466 0.932394C36.2635 -0.267258 33.0604 4.65491 30.6201 8.40496C30.0998 9.20462 29.6139 9.951 29.1755 10.5734H26.5312C25.055 10.5734 23.6266 11.0975 22.5006 12.0523L17.2651 16.4919C16.9751 16.7378 16.6085 16.8752 16.2283 16.8804L6.41489 17.0138C7.56543 17.6439 8.86203 17.9587 10.1734 17.9263L10.3243 17.9225C10.946 17.9072 11.4122 18.4873 11.2633 19.0912L11.0669 19.8878C10.9066 20.5383 10.5423 21.1205 10.0274 21.5491L8.07381 23.1755C8.04592 23.2034 8.03198 23.2312 8.03198 23.2731L8.05921 24.1801C8.07704 24.7745 8.38921 25.3198 8.9113 25.6046C10.3042 26.3639 13.2872 27.8205 16.4798 28.3195C20.1843 28.8982 22.1305 28.1349 23.0763 27.7639C23.2526 27.6946 23.3941 27.6392 23.5058 27.6085C23.5616 27.5945 23.6452 27.692 23.6452 27.692C20.9102 29.4204 19.7508 29.9798 16.4798 29.8817C13.2089 29.784 8.07381 27.1942 8.07381 27.1942C7.94834 27.1385 7.83682 27.3196 7.96229 27.4034C7.96229 27.4034 11.5943 31.2297 16.4798 32.2142ZM22.0002 17.2906C22.0281 16.5239 22.4463 15.8686 23.0597 15.4923C24.3004 15.6735 25.4296 16.0359 26.4194 16.8724C26.4611 17.0675 26.4891 17.2766 26.4751 17.4997C26.4194 18.6985 25.4296 19.6325 24.2446 19.6325H24.1471C22.9064 19.5768 21.9445 18.5313 22.0002 17.2906ZM22.3008 9.38705C20.7669 9.38705 19.2752 9.8891 18.0535 10.8165L15.7126 12.5933C15.643 12.6491 15.5314 12.5933 15.5314 12.5097C15.5925 11.6113 15.6325 10.6774 15.6724 9.74712C15.8509 5.58184 16.0263 1.48873 18.0752 0.976567C20.0269 0.48873 22.4255 5.94446 23.5965 9.38773L22.7107 9.38705H22.3008ZM22.0891 10.9836L16.3233 15.5989C16.1573 15.7317 15.9511 15.8041 15.7385 15.8041H13.4869L19.0256 11.513C19.9179 10.8216 21.0169 10.4507 22.1457 10.4597C22.2572 10.4597 22.5006 10.6589 22.0891 10.9836ZM5.75763 22.5702V21.4602L6.74733 22.7563V25.5166C6.10517 24.6685 5.75763 23.6338 5.75763 22.5702ZM5.75756 21.4599L5.75763 21.4602C5.75758 21.3489 5.71577 21.3623 5.75756 21.4599ZM36.0977 14.654C35.1149 13.4068 33.9697 12.2967 32.6926 11.3532C32.6926 11.3532 35.733 5.6809 37.3776 6.19641C39.022 6.71193 36.6381 15.3399 36.6381 15.3399L36.0977 14.654Z" fill="white"
            style="fill: var(--icon-fill-color);"
        />
        </g>
    </symbol>
</svg>